<?xml version="1.0" standalone="no"?>
<!DOCTYPE svg PUBLIC "-//W3C//DTD SVG 20010904//EN"
 "http://www.w3.org/TR/2001/REC-SVG-20010904/DTD/svg10.dtd">
<svg version="1.0" xmlns="http://www.w3.org/2000/svg"
 width="1000.000000pt" height="1000.000000pt" viewBox="0 0 1000.000000 1000.000000"
 preserveAspectRatio="xMidYMid meet">
<metadata>
Created by potrace 1.14, written by Peter Selinger 2001-2017
</metadata>
<g transform="translate(0.000000,1000.000000) scale(0.100000,-0.100000)"
fill="#000000" stroke="none">
<path d="M4050 8786 l0 -946 -950 0 -950 0 0 -950 0 -950 -947 0 -948 0 950
-950 950 -950 1897 1897 c1044 1044 1898 1901 1898 1904 0 4 -427 431 -950
949 l-950 942 0 -946z m-1579 -1205 c190 -91 203 -93 689 -101 297 -5 437 -11
465 -20 129 -40 245 -134 293 -237 24 -51 27 -70 27 -158 0 -88 -3 -107 -27
-157 -36 -77 -112 -152 -193 -190 -98 -45 -237 -50 -385 -11 l-25 6 25 -28
c39 -43 177 -143 241 -176 202 -102 408 -70 627 95 71 54 74 55 98 40 13 -9
24 -19 24 -23 0 -14 -962 -965 -966 -955 -3 6 -11 20 -18 30 -12 16 -9 24 33
70 59 67 107 147 139 232 33 88 37 246 8 332 -24 73 -78 171 -131 239 -40 52
-105 120 -105 110 0 -2 5 -20 10 -39 54 -185 15 -366 -104 -486 -71 -70 -143
-104 -239 -111 -133 -10 -254 44 -335 150 -109 143 -128 268 -100 658 20 288
-10 481 -105 672 -30 59 -53 107 -52 107 1 0 49 -22 106 -49z"/>
<path d="M5945 4049 l-1900 -1900 950 -943 950 -944 3 944 2 944 950 0 950 0
0 950 0 950 945 2 945 3 -947 947 -948 948 -1900 -1901z m673 200 c11 -18 8
-28 -32 -92 -25 -40 -62 -108 -83 -152 -37 -78 -38 -82 -38 -195 0 -100 4
-126 28 -196 15 -45 45 -109 65 -143 34 -56 129 -167 137 -159 2 2 -4 28 -12
58 -25 88 -22 241 4 326 45 141 152 258 276 301 70 24 204 24 274 0 269 -94
384 -451 208 -646 -36 -40 -179 -121 -213 -121 -28 0 1 -16 63 -34 33 -10 76
-27 96 -37 54 -27 126 -104 162 -173 31 -58 32 -66 32 -176 0 -104 -3 -120
-27 -173 -36 -76 -138 -179 -212 -213 -112 -51 -246 -52 -353 -2 -103 48 -192
164 -224 291 l-12 49 -28 -72 c-38 -98 -71 -143 -141 -189 -176 -118 -433 -53
-559 142 -55 85 -72 150 -67 257 3 73 9 98 36 152 60 122 181 212 329 243 90
19 150 18 258 -4 l90 -18 -55 49 c-71 64 -181 132 -256 159 -76 27 -231 37
-305 19 -61 -14 -185 -74 -264 -127 -45 -29 -57 -33 -74 -23 -12 6 -21 14 -21
18 0 8 892 902 900 902 3 0 11 -9 18 -21z"/>
</g>
</svg>
